<svg width="110" height="102" viewBox="0 0 110 102" fill="none" xmlns="http://www.w3.org/2000/svg">
<path d="M18.5871 61.4575V38.9575V37.4575C18.5871 35.9575 52.5871 28.4575 55.0871 32.4575C57.0871 35.6575 55.2538 37.1241 54.0871 37.4575C37.6871 37.4575 26.9204 40.7908 23.5871 42.4575C23.5871 47.2908 23.8871 59.8575 25.0871 71.4575C26.2871 83.0575 43.9204 95.9575 52.5871 100.957C56.5871 100.291 66.5871 96.0575 74.5871 84.4575C82.5871 72.8575 83.2538 64.2908 82.5871 61.4575H93.5871C99.9204 60.1241 111.687 54.4575 108.087 42.4575C104.487 30.4575 91.9204 30.1241 86.0871 31.4575C83.2871 15.4575 71.5871 16.7908 66.0871 19.4575C65.2871 13.0575 59.0871 7.45747 56.0871 5.45747C51.7538 2.45747 40.0871 -2.04253 28.0871 3.95747C16.0871 9.95747 15.7538 25.4575 17.0871 32.4575C9.88709 32.0575 5.75376 35.6241 4.58709 37.4575C2.25376 40.1241 -1.31291 47.1575 3.08709 53.9575C7.48709 60.7575 15.2538 61.7908 18.5871 61.4575Z" fill="#ED8936"/>
<path d="M18.5871 38.9575V61.4575M18.5871 61.4575C15.2538 61.7908 7.48709 60.7575 3.08709 53.9575C-1.31291 47.1575 2.25376 40.1241 4.58709 37.4575C5.75376 35.6241 9.88709 32.0575 17.0871 32.4575C15.7538 25.4575 16.0871 9.95747 28.0871 3.95747C40.0871 -2.04253 51.7538 2.45747 56.0871 5.45747C59.0871 7.45747 65.2871 13.0575 66.0871 19.4575C71.5871 16.7908 83.2871 15.4575 86.0871 31.4575C91.9204 30.1241 104.487 30.4575 108.087 42.4575C111.687 54.4575 99.9204 60.1241 93.5871 61.4575H82.5871C83.2538 64.2908 82.5871 72.8575 74.5871 84.4575C66.5871 96.0575 56.5871 100.291 52.5871 100.957C43.9204 95.9575 26.2871 83.0575 25.0871 71.4575C23.8871 59.8575 23.5871 47.2908 23.5871 42.4575C26.9204 40.7908 37.6871 37.4575 54.0871 37.4575C55.2538 37.1241 57.0871 35.6575 55.0871 32.4575C52.5871 28.4575 18.5871 35.9575 18.5871 37.4575C18.5871 38.6575 18.5871 53.9575 18.5871 61.4575Z" stroke="white"/>
<path d="M18.5871 38.9575V61.4575M18.5871 61.4575C15.2538 61.7908 7.48709 60.7575 3.08709 53.9575C-1.31291 47.1575 2.25376 40.1241 4.58709 37.4575C5.75376 35.6241 9.88709 32.0575 17.0871 32.4575C15.7538 25.4575 16.0871 9.95747 28.0871 3.95747C40.0871 -2.04253 51.7538 2.45747 56.0871 5.45747C59.0871 7.45747 65.2871 13.0575 66.0871 19.4575C71.5871 16.7908 83.2871 15.4575 86.0871 31.4575C91.9204 30.1241 104.487 30.4575 108.087 42.4575C111.687 54.4575 99.9204 60.1241 93.5871 61.4575H82.5871C83.2538 64.2908 82.5871 72.8575 74.5871 84.4575C66.5871 96.0575 56.5871 100.291 52.5871 100.957C43.9204 95.9575 26.2871 83.0575 25.0871 71.4575C23.8871 59.8575 23.5871 47.2908 23.5871 42.4575C26.9204 40.7908 37.6871 37.4575 54.0871 37.4575C55.2538 37.1241 57.0871 35.6575 55.0871 32.4575C52.5871 28.4575 18.5871 35.9575 18.5871 37.4575C18.5871 38.6575 18.5871 53.9575 18.5871 61.4575Z" stroke="white" stroke-opacity="0.2"/>
<path d="M45.5 80.0315L50 68.0315C46.4 66.4315 45 63.0315 45 60.5315C45.8 53.7315 51 53.0315 52 53.0315C53.5 53.0315 56.8 52.3315 60 57.5315C63.2 62.7315 58.6667 66.6982 56 68.0315L60 80.0315H45.5Z" fill="#FFFBFB"/>
<path d="M45.5 80.0315L50 68.0315C46.4 66.4315 45 63.0315 45 60.5315C45.8 53.7315 51 53.0315 52 53.0315C53.5 53.0315 56.8 52.3315 60 57.5315C63.2 62.7315 58.6667 66.6982 56 68.0315L60 80.0315H45.5Z" stroke="white"/>
<path d="M45.5 80.0315L50 68.0315C46.4 66.4315 45 63.0315 45 60.5315C45.8 53.7315 51 53.0315 52 53.0315C53.5 53.0315 56.8 52.3315 60 57.5315C63.2 62.7315 58.6667 66.6982 56 68.0315L60 80.0315H45.5Z" stroke="white" stroke-opacity="0.2"/>
</svg>
